<svg width="15" height="16" viewBox="0 0 15 16" fill="none" xmlns="http://www.w3.org/2000/svg">
<g clip-path="url(#clip0_130_17)">
<path d="M15 1.08994V10.7899C15 10.9566 14.9417 11.1066 14.825 11.2399C14.7083 11.3733 14.5583 11.4399 14.375 11.4399C14.1917 11.4399 14.0333 11.3733 13.9 11.2399C13.7667 11.1066 13.7 10.9566 13.7 10.7899V2.63994L1.1 15.2399C0.966667 15.3733 0.808333 15.4399 0.625 15.4399C0.441667 15.4399 0.291667 15.3816 0.175 15.2649C0.0583333 15.1483 0 14.9983 0 14.8149C0 14.6316 0.0666667 14.4733 0.2 14.3399L12.8 1.73994H4.65C4.48333 1.73994 4.33333 1.67327 4.2 1.53994C4.06667 1.40661 4 1.24827 4 1.06494C4 0.881608 4.06667 0.731607 4.2 0.614942C4.33333 0.498275 4.48333 0.439941 4.65 0.439941H14.35C14.55 0.439941 14.7083 0.498275 14.825 0.614942C14.9417 0.731607 15 0.889941 15 1.08994Z" fill="#181A20"/>
</g>
<defs>
<clipPath id="clip0_130_17">
<rect width="15" height="15" fill="white" transform="matrix(1 0 0 -1 0 15.4399)"/>
</clipPath>
</defs>
</svg>
