<svg width="15" height="16" viewBox="0 0 15 16" fill="none" xmlns="http://www.w3.org/2000/svg">
<path d="M15 1.08945V10.7895C15 10.9561 14.9417 11.1061 14.825 11.2395C14.7083 11.3728 14.5583 11.4395 14.375 11.4395C14.1917 11.4395 14.0333 11.3728 13.9 11.2395C13.7667 11.1061 13.7 10.9561 13.7 10.7895V2.63945L1.1 15.2395C0.966667 15.3728 0.808333 15.4395 0.625 15.4395C0.441667 15.4395 0.291667 15.3811 0.175 15.2645C0.0583333 15.1478 0 14.9978 0 14.8145C0 14.6311 0.0666667 14.4728 0.2 14.3395L12.8 1.73945H4.65C4.48333 1.73945 4.33333 1.67279 4.2 1.53945C4.06667 1.40612 4 1.24779 4 1.06445C4 0.88112 4.06667 0.731119 4.2 0.614453C4.33333 0.497787 4.48333 0.439453 4.65 0.439453H14.35C14.55 0.439453 14.7083 0.497787 14.825 0.614453C14.9417 0.731119 15 0.889453 15 1.08945Z" fill="white"/>
</svg>
