<svg width="19" height="19" viewBox="0 0 19 19" fill="none" xmlns="http://www.w3.org/2000/svg">
<g clip-path="url(#clip0_6108_1908)">
<path d="M9.7998 12.12C9.0398 12.12 8.3398 11.93 7.6998 11.55C7.0598 11.17 6.5498 10.66 6.1698 10.02C5.7898 9.38003 5.5998 8.68003 5.5998 7.92003C5.5998 7.16003 5.7898 6.46003 6.1698 5.82003C6.5498 5.18003 7.0598 4.67003 7.6998 4.29003C8.3398 3.91003 9.0398 3.72003 9.7998 3.72003C10.5598 3.72003 11.2598 3.91003 11.8998 4.29003C12.5398 4.67003 13.0498 5.18003 13.4298 5.82003C13.8098 6.46003 13.9998 7.16003 13.9998 7.92003C13.9998 8.68003 13.8098 9.38003 13.4298 10.02C13.0498 10.66 12.5398 11.17 11.8998 11.55C11.2598 11.93 10.5598 12.12 9.7998 12.12ZM9.7998 4.92003C8.9598 4.92003 8.2498 5.21003 7.6698 5.79003C7.0898 6.37003 6.7998 7.08003 6.7998 7.92003C6.7998 8.76003 7.0898 9.47003 7.6698 10.05C8.2498 10.63 8.9598 10.92 9.7998 10.92C10.6398 10.92 11.3498 10.63 11.9298 10.05C12.5098 9.47003 12.7998 8.76003 12.7998 7.92003C12.7998 7.08003 12.5098 6.37003 11.9298 5.79003C11.3498 5.21003 10.6398 4.92003 9.7998 4.92003ZM9.7998 0.720032C8.1598 0.720032 6.6498 1.12003 5.2698 1.92003C3.8898 2.72003 2.7998 3.81003 1.9998 5.19003C1.1998 6.57003 0.799805 8.08003 0.799805 9.72003C0.799805 11.36 1.1998 12.87 1.9998 14.25C2.7998 15.63 3.8898 16.72 5.2698 17.52C6.6498 18.32 8.1598 18.72 9.7998 18.72C11.4398 18.72 12.9498 18.32 14.3298 17.52C15.7098 16.72 16.7998 15.63 17.5998 14.25C18.3998 12.87 18.7998 11.36 18.7998 9.72003C18.7998 8.08003 18.3998 6.57003 17.5998 5.19003C16.7998 3.81003 15.7098 2.72003 14.3298 1.92003C12.9498 1.12003 11.4398 0.720032 9.7998 0.720032ZM5.0598 15.9C5.4598 15.46 5.9298 15.12 6.4698 14.88C7.0098 14.64 7.5598 14.52 8.1198 14.52H11.4798C12.0398 14.52 12.5898 14.64 13.1298 14.88C13.6698 15.12 14.1398 15.46 14.5398 15.9C13.6198 16.62 12.5998 17.1 11.4798 17.34C10.3598 17.58 9.2398 17.58 8.1198 17.34C6.9998 17.1 5.9798 16.62 5.0598 15.9ZM15.4398 15.06C14.9198 14.5 14.3098 14.07 13.6098 13.77C12.9098 13.47 12.1798 13.32 11.4198 13.32H8.1198C7.3998 13.32 6.6898 13.47 5.9898 13.77C5.2898 14.07 4.6798 14.5 4.1598 15.06C3.1998 14.06 2.5598 12.9 2.2398 11.58C1.9198 10.26 1.9398 8.94003 2.2998 7.62003C2.6598 6.30003 3.3398 5.14003 4.3398 4.14003C5.3398 3.14003 6.4998 2.47003 7.8198 2.13003C9.1398 1.79003 10.4698 1.79003 11.8098 2.13003C13.1498 2.47003 14.3098 3.14003 15.2898 4.14003C16.2698 5.14003 16.9498 6.30003 17.3298 7.62003C17.7098 8.94003 17.7398 10.26 17.4198 11.58C17.0998 12.9 16.4398 14.06 15.4398 15.06Z" fill="#181A20"/>
</g>
<defs>
<clipPath id="clip0_6108_1908">
<rect width="18" height="18" fill="white" transform="matrix(1 0 0 -1 0.799805 18.72)"/>
</clipPath>
</defs>
</svg>
